Coordinates
version=1
nRows=15
nColumns=38
inDegrees=yes

Units are S.I. units (second, meters, Newtons, ...)
Angles are in degrees.

endheader
time	pelvis_tilt	pelvis_list	pelvis_rotation	pelvis_tx	pelvis_ty	pelvis_tz	hip_flexion_r	hip_adduction_r	hip_rotation_r	knee_angle_r	ankle_angle_r	subtalar_angle_r	mtp_angle_r	hip_flexion_l	hip_adduction_l	hip_rotation_l	knee_angle_l	ankle_angle_l	subtalar_angle_l	mtp_angle_l	lumbar_extension	lumbar_bending	lumbar_rotation	arm_flex_r	arm_add_r	arm_rot_r	elbow_flex_r	pro_sup_r	wrist_flex_r	wrist_dev_r	arm_flex_l	arm_add_l	arm_rot_l	elbow_flex_l	pro_sup_l	wrist_flex_l	wrist_dev_l
      1.82000000	      2.35619462	      3.36377963	      7.86592258	      0.59007641	      1.00227807	     -0.27031507	     24.75892955	     -6.31567939	    -19.71165459	    -12.34566721	     -1.89922808	     -2.09243597	      0.00000000	    -20.19348067	      1.50388161	      3.13308813	    -14.42906775	     17.09792434	      9.05066790	      0.00000000	    -11.42639296	     -1.16296822	     -7.06070944	      3.77941356	     -6.31186703	     51.82994866	     21.53174240	     44.53061665	      0.00000000	      0.00000000	      6.07271050	    -10.92037251	     37.55153338	     38.81690382	     44.53061665	      0.00000000	      0.00000000
      1.83000000	      2.36182690	      2.76575501	      7.88247507	      0.60561600	      1.00188696	     -0.26883735	     24.71949842	     -5.69685480	    -20.54178975	    -12.92202486	     -5.61701446	     -3.54543521	      0.00000000	    -20.20759165	      0.55854395	      2.15166997	    -15.78671908	     15.92201667	     10.12765750	      0.00000000	    -11.19833988	     -0.46902213	     -6.85387552	      3.58237987	     -6.35260624	     51.82435604	     21.34133324	     44.54904593	      0.00000000	      0.00000000	      5.78078500	    -10.64632826	     37.93513388	     38.05351854	     44.54904593	      0.00000000	      0.00000000
      1.84000000	      2.28492556	      2.15284511	      7.88039733	      0.62138403	      1.00187534	     -0.26726031	     24.51478384	     -4.83782293	    -18.59763956	    -13.27453241	     -7.74649163	     -5.64776401	      0.00000000	    -20.09864857	     -0.38837266	      1.30842654	    -17.16454332	     14.26973902	     11.04667942	      0.00000000	    -10.87177039	      0.21894369	     -6.64729088	      3.32523030	     -6.38139102	     51.81664084	     21.17311758	     44.56227409	      0.00000000	      0.00000000	      5.37025217	    -10.38701812	     38.24361294	     37.36789934	     44.56227409	      0.00000000	      0.00000000
      1.85000000	      2.00852977	      1.43895125	      7.91621422	      0.63715097	      1.00212189	     -0.26574031	     24.56817739	     -3.83830293	    -16.99438601	    -13.89629016	    -10.31601201	     -7.51471249	      0.00000000	    -19.55648033	     -1.36575549	      0.85875444	    -18.84448523	     12.45569261	     11.31038535	      0.00000000	    -10.27234491	      0.99770485	     -6.46037576	      3.02094929	     -6.44545368	     51.80589536	     20.98819363	     44.57130284	      0.00000000	      0.00000000	      4.88289088	    -10.07176087	     38.47910396	     36.74572786	     44.57130284	      0.00000000	      0.00000000
      1.86000000	      1.71914653	      0.68386866	      7.92460480	      0.65297982	      1.00279737	     -0.26446388	     24.65140436	     -2.63608698	    -14.26872385	    -14.84984995	    -11.59848043	    -10.49851744	      0.00000000	    -18.81329555	     -2.35421235	      0.20778632	    -20.74984748	     10.28155565	     11.41149364	      0.00000000	     -9.63135364	      1.86727383	     -6.27469659	      2.80523903	     -6.56026595	     51.79035455	     20.82720982	     44.57724980	      0.00000000	      0.00000000	      4.21634361	     -9.70877665	     38.66243240	     36.14900930	     44.57724980	      0.00000000	      0.00000000
      1.87000000	      1.58066978	      0.00706283	      7.92194672	      0.66881226	      1.00407578	     -0.26340686	     24.81839823	     -1.73223653	    -13.09119919	    -16.25024982	    -11.29445652	    -12.46663049	      0.00000000	    -18.15595768	     -3.24088223	     -0.22533299	    -22.69902279	      7.20218867	     11.36526154	      0.00000000	     -9.21120599	      2.68078675	     -6.10091824	      2.57404745	     -6.68313161	     51.77395630	     20.66566360	     44.58356500	      0.00000000	      0.00000000	      3.69290553	     -9.30371123	     38.81094779	     35.44081770	     44.58356500	      0.00000000	      0.00000000
      1.88000000	      1.53117340	     -0.63614387	      7.82222371	      0.68460059	      1.00574278	     -0.26225414	     24.94111603	     -0.99066527	    -12.76667148	    -17.88528567	    -10.66068099	    -13.80860755	      0.00000000	    -17.30920069	     -4.15554707	     -1.13961206	    -25.04696456	      3.97501633	     11.32371841	      0.00000000	     -8.92016960	      3.46753224	     -5.86962084	      2.41014514	     -6.80342908	     51.73602565	     20.48616289	     44.59510351	      0.00000000	      0.00000000	      3.24051123	     -8.78096625	     39.02497987	     34.28853879	     44.59510351	      0.00000000	      0.00000000
      1.89000000	      1.54042251	     -1.16451384	      7.57187299	      0.70031777	      1.00775145	     -0.26077966	     24.67861586	     -0.04007198	    -11.40150876	    -19.05301437	     -9.65490773	    -14.30761198	      0.00000000	    -16.42389630	     -4.94484784	     -2.16288134	    -27.46115326	      0.10040971	     10.83732098	      0.00000000	     -8.73369227	      4.07690865	     -5.49451797	      2.30999598	     -6.93412539	     51.71580955	     20.39773055	     44.59914330	      0.00000000	      0.00000000	      2.58314456	     -8.47935816	     39.17942936	     33.86538947	     44.59914330	      0.00000000	      0.00000000
      1.90000000	      1.49739799	     -1.75711677	      7.42923384	      0.71548138	      1.00977840	     -0.25925065	     24.27693056	      0.83421703	    -11.03095959	    -19.77832314	     -8.60220975	    -14.67315194	      0.00000000	    -15.22183047	     -5.88533403	     -3.09128894	    -30.05519948	     -3.96571964	     10.46362635	      0.00000000	     -8.53641023	      4.73889123	     -5.24193122	      2.27677043	     -7.04377817	     51.69219793	     20.33116029	     44.60236306	      0.00000000	      0.00000000	      1.99175430	     -8.20325881	     39.28064110	     33.46411640	     44.60236306	      0.00000000	      0.00000000
      1.91000000	      1.48692974	     -2.30203850	      7.27533955	      0.73030841	      1.01194028	     -0.25763929	     23.72454151	      1.62631198	    -10.84872478	    -20.29936160	     -7.56043169	    -14.78769645	      0.00000000	    -14.03527435	     -6.63887893	     -3.25284310	    -32.52867925	     -7.29055820	      9.89163693	      0.00000000	     -8.44833654	      5.31390889	     -4.95780260	      2.28644538	     -7.14679151	     51.67363158	     20.28900019	     44.60433322	      0.00000000	      0.00000000	      1.45857301	     -7.98247213	     39.34983299	     33.16458794	     44.60433322	      0.00000000	      0.00000000
      1.92000000	      1.46626753	     -2.75343873	      7.03002341	      0.74472959	      1.01429423	     -0.25587172	     23.08655417	      2.37837113	    -10.50134123	    -20.61567875	     -6.59515126	    -14.65006865	      0.00000000	    -12.67843418	     -7.07745600	     -2.80655361	    -35.28436853	     -9.70053861	      8.74690036	      0.00000000	     -8.41702327	      5.75265815	     -4.55443374	      2.38180367	     -7.24457859	     51.65369587	     20.26981953	     44.60633861	      0.00000000	      0.00000000	      0.97701786	     -7.76786609	     39.39886652	     32.84372743	     44.60633861	      0.00000000	      0.00000000
      1.93000000	      1.41364702	     -3.04475037	      6.81221278	      0.75875737	      1.01667819	     -0.25421015	     22.37747939	      2.92832696	    -10.33106990	    -20.74703057	     -5.64762350	    -14.41173069	      0.00000000	    -11.11720176	     -7.16239603	     -1.90503851	    -38.24043152	    -11.62630727	      6.63342231	      0.00000000	     -8.41864277	      6.00132831	     -4.20151408	      2.51776971	     -7.32247567	     51.63873597	     20.27742210	     44.60893021	      0.00000000	      0.00000000	      0.56592808	     -7.56387459	     39.42375396	     32.44756812	     44.60893021	      0.00000000	      0.00000000
      1.94000000	      1.43400226	     -3.04271897	      6.72006571	      0.77245228	      1.01921695	     -0.25277796	     21.56871431	      3.08609932	    -10.48909280	    -20.91224716	     -4.54549342	    -13.77213094	      0.00000000	     -9.58487310	     -6.94025309	     -1.03804293	    -41.03178259	    -13.33160026	      4.68641226	      0.00000000	     -8.54981919	      5.89503219	     -3.97391517	      2.66616174	     -7.36359052	     51.65187539	     20.36974602	     44.61927515	      0.00000000	      0.00000000	      0.34575272	     -7.23821725	     39.42759968	     31.35453464	     44.61927515	      0.00000000	      0.00000000
      1.95000000	      1.57768608	     -3.17978188	      6.64427947	      0.78587915	      1.02182201	     -0.25127322	     20.47905334	      3.48988176	    -10.40534864	    -20.69254376	     -3.67282328	    -13.63238258	      0.00000000	     -8.05426188	     -7.11624586	     -0.76299329	    -43.93153956	    -14.01052953	      3.61908381	      0.00000000	     -8.82493651	      5.95058493	     -3.70764977	      2.87615192	     -7.39084179	     51.64537739	     20.41459972	     44.62139388	      0.00000000	      0.00000000	      0.07234440	     -7.16033853	     39.47956039	     31.16221168	     44.62139388	      0.00000000	      0.00000000
      1.96000000	      1.68481712	     -3.28745634	      6.66678806	      0.79909829	      1.02427849	     -0.24996909	     19.37370658	      3.82834930	    -10.33089785	    -20.34940519	     -2.81046092	    -13.39724902	      0.00000000	     -6.38940101	     -7.28919588	     -0.55404872	    -46.86433613	    -13.61063122	      2.38565686	      0.00000000	     -9.04548303	      5.96859208	     -3.51693263	      3.11918654	     -7.43291365	     51.64326336	     20.47932471	     44.62365479	      0.00000000	      0.00000000	     -0.24200163	     -7.06248466	     39.49470051	     30.90168504	     44.62365479	      0.00000000	      0.00000000
